<?xml version="1.0" encoding="UTF-8"?>
<svg width="255px" height="70px" viewBox="0 0 255 70" version="1.1" xmlns="http://www.w3.org/2000/svg" xmlns:xlink="http://www.w3.org/1999/xlink">
    <!-- Generator: sketchtool 50.2 (55047) - http://www.bohemiancoding.com/sketch -->
    <title>DD28A31F-0336-45BD-A990-22811FD941D3</title>
    <desc>Created with sketchtool.</desc>
    <defs></defs>
    <g id="Page-1" stroke="none" stroke-width="1" fill="none" fill-rule="evenodd">
        <g id="Kiosk---Default" transform="translate(-56.000000, -35.000000)" fill="#FDFDFD">
            <g id="Logo" transform="translate(56.000000, 35.000000)">
                <path d="M34.9539021,69.0985039 C16.0133895,69.0985039 0.65907025,53.7441847 0.65907025,34.803672 C0.65907025,15.8631594 16.0133895,0.508840163 34.9539021,0.508840163 C53.8944148,0.508840163 69.248734,15.8631594 69.248734,34.803672 C69.248734,53.7441847 53.8944148,69.0985039 34.9539021,69.0985039 Z M28.8617823,30.6584777 C33.4318693,32.8874581 33.5949817,31.4124743 36.1690744,26.1348022 C38.7431671,20.85713 38.2625991,17.1600134 35.9867979,16.0500309 C33.7109966,14.9400485 30.5017617,16.8375281 27.927669,22.1152002 C25.3535763,27.3928723 24.2916953,28.4294973 28.8617823,30.6584777 Z M28.0304785,32.5431643 C24.2839852,30.7158775 24.2026916,31.7905636 23.2585076,33.7264277 C22.3143235,35.6622918 23.0660985,37.9716014 24.9376438,38.8844151 C26.8091892,39.7972287 29.0917889,38.9678825 30.0359729,37.0320184 C30.9801569,35.0961543 31.7769718,34.3704512 28.0304785,32.5431643 Z M38.6396159,48.8681242 C43.2097029,51.0971046 43.3728153,49.6221208 45.946908,44.3444487 C48.5210007,39.0667766 48.0404327,35.3696599 45.7646315,34.2596775 C43.4888302,33.149695 40.2795953,35.0471746 37.7055027,40.3248467 C35.13141,45.6025189 34.0695289,46.6391439 38.6396159,48.8681242 Z M37.8083121,50.7528109 C34.0618188,48.925524 33.9805252,50.0002101 33.0363412,51.9360742 C32.0921572,53.8719383 32.8439321,56.1812479 34.7154774,57.0940616 C36.5870228,58.0068752 38.8696225,57.177529 39.8138065,55.2416649 C40.7579905,53.3058008 41.5548054,52.5800977 37.8083121,50.7528109 Z"></path>
                <text id="WAYFINDER" font-family="SofiaProSemiBold, Sofia Pro" font-size="18" font-weight="500" letter-spacing="8">
                    <tspan x="92.1012233" y="44.075">WAYFINDE</tspan>
                    <tspan x="244.229223" y="44.075">R</tspan>
                </text>
            </g>
        </g>
    </g>
</svg>